<?xml version="1.0" encoding="UTF-8"?>
<svg width="215px" height="171px" viewBox="0 0 215 171" version="1.1" xmlns="http://www.w3.org/2000/svg" xmlns:xlink="http://www.w3.org/1999/xlink">
    <!-- Generator: Sketch 44.1 (41455) - http://www.bohemiancoding.com/sketch -->
    <title>plane-mask</title>
    <desc>Created with Sketch.</desc>
    <defs></defs>
    <g id="Welcome" stroke="none" stroke-width="1" fill="none" fill-rule="evenodd">
        <g id="modern" transform="translate(-254.000000, -2508.000000)" fill="#000000">
            <g id="industries" transform="translate(0.000000, 2168.000000)">
                <g id="aerospace" transform="translate(170.000000, 266.000000)">
                    <path d="M235.05803,135.136314 L226.240525,131.465519 C226.085066,123.682772 224.865187,117.623573 223.38337,117.623573 C222.054173,117.623573 220.935736,122.498908 220.607247,129.120342 L200.187548,120.619466 C197.69145,92.9474811 192.607332,74 186.74135,74 C180.868107,74 175.778667,92.9944094 173.285896,120.722247 L152.913999,129.999594 C152.64447,122.935044 151.486707,117.623573 150.09933,117.623573 C148.546905,117.623573 147.281976,124.273959 147.227289,132.58931 L138.50829,136.559943 C138.182694,129.915215 137.062168,125.017399 135.72991,125.017399 C134.231047,125.017399 133.000183,131.216806 132.867814,139.128612 L84,161.382978 L84,179.731712 C120.295431,173.459516 149.802011,169.602377 172.519741,168.160294 C173.9808,183.206862 175.180651,196.782485 176.42577,208.180853 L144.351562,217.970361 L144.351562,230.009729 C158.321387,227.59561 169.758862,226.082346 178.663987,225.469937 C180.6327,237.696203 183.039338,244.797381 186.74135,244.797381 C190.396141,244.797381 192.828344,237.589431 194.810449,225.452301 C203.752494,226.052957 215.276453,227.5721 229.382324,230.009729 L229.382324,217.970361 L196.987666,208.979292 C198.303338,197.187325 199.536129,183.109495 201.015699,167.718263 C224.696908,168.634339 257.059792,172.638822 298.104351,179.731712 L298.104351,161.382978 L240.568865,137.430516 C240.301979,130.347472 239.142593,125.017399 237.752789,125.017399 C236.517618,125.017399 235.464444,129.227381 235.05803,135.136314 Z" id="plane-mask"></path>
                </g>
            </g>
        </g>
    </g>
</svg>